# xmcd
#
# Track frame offsets:
#	150
#	27812
#	47987
#	66512
#	83462
#	95387
#	115637
#	132662
#	151150
#
# Disc length: 2233 seconds
#
# Revision: 1
# Processed by: cddbd v1.4PL0 Copyright (c) Steve Scherf et al.
# Submitted via: EasyCDDAExtractor 5.1.0
#
DISCID=6d08b709
DTITLE=Shlomi Shabat - Because Of The Wind
DYEAR=1900
DGENRE=Country
TTITLE0=margarita neclese
TTITLE1=the melodies of my life
TTITLE2=the admiral
TTITLE3=hazon la zadik
TTITLE4=a new year
TTITLE5=because of the wind
TTITLE6=neshira
TTITLE7=the flower song
TTITLE8=free and happy
EXTD=
EXTT0=
EXTT1=
EXTT2=
EXTT3=
EXTT4=
EXTT5=
EXTT6=
EXTT7=
EXTT8=
PLAYORDER=
